<svg width="250" height="32" viewBox="0 0 250 32" fill="none" xmlns="http://www.w3.org/2000/svg">
<path d="M5.52049 13.0784V0H0V31.4144H5.52049V13.0784ZM22.8051 31.3486H28.2599V14.5898L22.8051 6.90059V31.3489V31.3486ZM44.6245 0.065615V21.6874L29.1806 0.065615H23.2657L45.4789 31.3488H50.0136V0.065615H44.6245ZM72.8179 5.19199H82.7417V0.0657833H57.374V5.19199H72.8179ZM67.2978 10.3184H72.8183V31.3488H67.2978V10.3184ZM92.0084 0.065615H115.405V5.06034H92.0084V0.065615ZM92.0084 26.3538H115.339V31.3486H92.0084V26.3538ZM92.0084 13.0784H113.104V18.0074H92.0084V13.0784ZM150.631 31.3486L142.153 19.5185C143.292 19.168 144.3 18.7518 145.176 18.2699C146.14 17.6565 146.928 16.9775 147.542 16.2326C148.243 15.4002 148.747 14.502 149.053 13.5381C149.448 12.4865 149.645 11.3035 149.645 9.98912C149.645 8.45567 149.382 7.07556 148.856 5.84873C148.33 4.66573 147.564 3.63616 146.556 2.75987C145.592 1.92739 144.365 1.27015 142.876 0.788221C141.342 0.306296 139.721 0.0652953 138.012 0.0652953H124.079V5.06002H137.552C139.611 5.06002 141.21 5.49818 142.35 6.37443C143.489 7.25067 144.058 8.56504 144.058 10.3176C144.058 11.9387 143.489 13.2093 142.35 14.1294C141.21 15.0934 139.633 15.5753 137.618 15.5753H124.079V31.3482H129.534V20.4384H136.435L144.124 31.3482H150.63L150.631 31.3486ZM161.737 0H155.823L167.258 31.3488H173.239L166.601 12.5526L161.737 0ZM185.922 0H180.139L173.304 16.6931L176.13 24.1853L185.922 0ZM207.413 13.0784V0H201.892V31.4144H207.413V13.0784ZM226.603 0.065615H250V5.06034H226.603V0.065615ZM226.603 26.3538H249.934V31.3486H226.603V26.3538ZM226.603 13.0784H247.699V18.0074H226.603V13.0784Z" fill="white"/>
</svg>
