<svg width="364" height="100" viewBox="0 0 364 100" fill="none" xmlns="http://www.w3.org/2000/svg">
<g clip-path="url(#clip0_258_5)">
<path d="M50 100C77.6156 100 100 77.6156 100 50C100 22.3844 77.6156 0 50 0C22.3844 0 0 22.3844 0 50C0 77.6156 22.3844 100 50 100ZM46.3031 20.0656H52.5531V47.8344H80.325V54.0844H46.3031V20.0656ZM27.6812 21.4312H33.9312V66.0656H78.5656V72.3156H27.6812V21.4312Z" fill="white"/>
<path d="M119.52 48.2786V35.2002H114V66.6146H119.52V48.2786ZM136.805 66.5488H142.26V49.79L136.805 42.1008V66.5491V66.5488ZM158.624 35.2658V56.8876L143.181 35.2658H137.266L159.479 66.549H164.014V35.2658H158.624ZM186.818 40.3922H196.742V35.266H171.374V40.3922H186.818ZM181.298 45.5186H186.818V66.549H181.298V45.5186ZM206.008 35.2658H229.405V40.2605H206.008V35.2658ZM206.008 61.554H229.339V66.5488H206.008V61.554ZM206.008 48.2786H227.104V53.2076H206.008V48.2786ZM264.631 66.5488L256.153 54.7187C257.292 54.3682 258.3 53.952 259.176 53.4701C260.14 52.8567 260.928 52.1776 261.542 51.4328C262.243 50.6004 262.747 49.7022 263.053 48.7382C263.448 47.6867 263.645 46.5037 263.645 45.1893C263.645 43.6559 263.382 42.2758 262.856 41.0489C262.33 39.8659 261.564 38.8364 260.556 37.9601C259.592 37.1276 258.365 36.4703 256.876 35.9884C255.342 35.5065 253.721 35.2655 252.012 35.2655H238.079V40.2602H251.552C253.611 40.2602 255.21 40.6984 256.35 41.5746C257.489 42.4509 258.058 43.7652 258.058 45.5178C258.058 47.1389 257.489 48.4095 256.35 49.3296C255.21 50.2936 253.633 50.7755 251.618 50.7755H238.079V66.5484H243.534V55.6386H250.435L258.124 66.5484H264.63L264.631 66.5488ZM275.737 35.2002H269.823L281.258 66.549H287.239L280.601 47.7528L275.737 35.2002ZM299.922 35.2002H294.139L287.304 51.8933L290.13 59.3855L299.922 35.2002ZM321.413 48.2786V35.2002H315.892V66.6146H321.413V48.2786ZM340.603 35.2658H364V40.2605H340.603V35.2658ZM340.603 61.554H363.934V66.5488H340.603V61.554ZM340.603 48.2786H361.699V53.2076H340.603V48.2786Z" fill="white"/>
</g>
<defs>
<clipPath id="clip0_258_5">
<rect width="364" height="100" fill="white"/>
</clipPath>
</defs>
</svg>
